<mxfile host="app.diagrams.net" agent="Mozilla/5.0 (Windows NT 10.0; Win64; x64) AppleWebKit/537.36 (KHTML, like Gecko) Chrome/132.0.0.0 Safari/537.36 OPR/117.0.0.0" version="26.2.6">
  <diagram name="Página-1" id="mpzSE44-NLol-4ucgmTf">
    <mxGraphModel dx="833" dy="453" grid="1" gridSize="10" guides="1" tooltips="1" connect="1" arrows="1" fold="1" page="1" pageScale="1" pageWidth="827" pageHeight="1169" math="0" shadow="0">
      <root>
        <mxCell id="0" />
        <mxCell id="1" parent="0" />
        <mxCell id="7SnzErIHLQUNFPZCzKIX-3" value="" style="edgeStyle=orthogonalEdgeStyle;rounded=0;orthogonalLoop=1;jettySize=auto;html=1;" edge="1" parent="1" source="7SnzErIHLQUNFPZCzKIX-1" target="7SnzErIHLQUNFPZCzKIX-2">
          <mxGeometry relative="1" as="geometry" />
        </mxCell>
        <mxCell id="7SnzErIHLQUNFPZCzKIX-1" value="Início" style="rounded=1;whiteSpace=wrap;html=1;fontSize=12;glass=0;strokeWidth=1;shadow=0;" vertex="1" parent="1">
          <mxGeometry x="260" y="170" width="60" height="40" as="geometry" />
        </mxCell>
        <mxCell id="7SnzErIHLQUNFPZCzKIX-5" value="" style="edgeStyle=orthogonalEdgeStyle;rounded=0;orthogonalLoop=1;jettySize=auto;html=1;" edge="1" parent="1" source="7SnzErIHLQUNFPZCzKIX-2" target="7SnzErIHLQUNFPZCzKIX-4">
          <mxGeometry relative="1" as="geometry" />
        </mxCell>
        <mxCell id="7SnzErIHLQUNFPZCzKIX-2" value="&lt;div&gt;&lt;br&gt;&lt;/div&gt;&lt;div&gt;&lt;br&gt;&lt;/div&gt;Ler b" style="shape=manualInput;whiteSpace=wrap;html=1;" vertex="1" parent="1">
          <mxGeometry x="245" y="240" width="90" height="60" as="geometry" />
        </mxCell>
        <mxCell id="7SnzErIHLQUNFPZCzKIX-7" value="" style="edgeStyle=orthogonalEdgeStyle;rounded=0;orthogonalLoop=1;jettySize=auto;html=1;" edge="1" parent="1" source="7SnzErIHLQUNFPZCzKIX-4" target="7SnzErIHLQUNFPZCzKIX-6">
          <mxGeometry relative="1" as="geometry" />
        </mxCell>
        <mxCell id="7SnzErIHLQUNFPZCzKIX-4" value="&lt;div&gt;&lt;br&gt;&lt;/div&gt;&lt;div&gt;&lt;br&gt;&lt;/div&gt;Ler c" style="shape=manualInput;whiteSpace=wrap;html=1;" vertex="1" parent="1">
          <mxGeometry x="245" y="380" width="90" height="60" as="geometry" />
        </mxCell>
        <mxCell id="7SnzErIHLQUNFPZCzKIX-9" value="" style="edgeStyle=orthogonalEdgeStyle;rounded=0;orthogonalLoop=1;jettySize=auto;html=1;" edge="1" parent="1" source="7SnzErIHLQUNFPZCzKIX-6" target="7SnzErIHLQUNFPZCzKIX-8">
          <mxGeometry relative="1" as="geometry" />
        </mxCell>
        <mxCell id="7SnzErIHLQUNFPZCzKIX-6" value="h = raiz de (b*b + c*c)" style="whiteSpace=wrap;html=1;" vertex="1" parent="1">
          <mxGeometry x="230" y="520" width="120" height="60" as="geometry" />
        </mxCell>
        <mxCell id="7SnzErIHLQUNFPZCzKIX-11" value="" style="edgeStyle=orthogonalEdgeStyle;rounded=0;orthogonalLoop=1;jettySize=auto;html=1;" edge="1" parent="1" source="7SnzErIHLQUNFPZCzKIX-8" target="7SnzErIHLQUNFPZCzKIX-10">
          <mxGeometry relative="1" as="geometry" />
        </mxCell>
        <mxCell id="7SnzErIHLQUNFPZCzKIX-8" value="h" style="shape=display;whiteSpace=wrap;html=1;" vertex="1" parent="1">
          <mxGeometry x="250" y="640" width="80" height="40" as="geometry" />
        </mxCell>
        <mxCell id="7SnzErIHLQUNFPZCzKIX-10" value="Fim" style="rounded=1;whiteSpace=wrap;html=1;fontSize=12;glass=0;strokeWidth=1;shadow=0;" vertex="1" parent="1">
          <mxGeometry x="260" y="740" width="60" height="40" as="geometry" />
        </mxCell>
      </root>
    </mxGraphModel>
  </diagram>
</mxfile>
